<svg viewBox="0 0 320 200" xmlns="http://www.w3.org/2000/svg">
  <text x="20" y="150" font-family="Georgia, 'Times New Roman', Times, serif" font-weight="700" font-size="170" fill="#000000">BH</text>

  <!-- helix runs beneath BH as a horizontal double strand, matching the wordmark underline -->
  <g fill="none" stroke="#000000" stroke-width="4" stroke-linecap="round">
    <path d="M20,164 C42.5,164 42.5,178 65,178 C87.5,178 87.5,164 110,164 C132.5,164 132.5,178 155,178 C177.5,178 177.5,164 200,164 C222.5,164 222.5,178 245,178 C267.5,178 267.5,164 290,164"/>
    <path d="M20,178 C42.5,178 42.5,164 65,164 C87.5,164 87.5,178 110,178 C132.5,178 132.5,164 155,164 C177.5,164 177.5,178 200,178 C222.5,178 222.5,164 245,164 C267.5,164 267.5,178 290,178"/>
  </g>
  <g fill="#000000">
    <rect x="58" y="168.5" width="14" height="5" rx="1"/>
    <rect x="148" y="168.5" width="14" height="5" rx="1"/>
    <rect x="238" y="168.5" width="14" height="5" rx="1"/>
  </g>
</svg>
